<svg version="1.1" id="uk_icon" xmlns="http://www.w3.org/2000/svg" x="0px" y="0px" width="20" height="20" viewBox="0 0 20 20" xml:space="preserve"> <g> <path fill-rule="evenodd" clip-rule="evenodd" d="M13.2,0.3c-0.3,0-0.6,0-0.9,0.1c0,0,0.1,0.1,0.1,0.3c0,0.3-0.2,0.5-0.8,0.5c-0.5,0-1-0.1-1.5-0.2C9.6,0.7,8.9,0.6,8.1,0.6c-1.4,0-3.6,0.6-3.6,3.1c0,1.3,0.7,2.1,1.2,2.5C6.3,5.6,7,5.3,7.9,5c0-0.6,0.4-0.9,1-0.9c0.2,0,0.6,0.1,1.7,0.3c0.8,0.2,1.4,0.3,2.1,0.3c1.6,0,2.7-0.9,2.7-2.3C15.5,1.1,14.6,0.3,13.2,0.3z"/><path fill-rule="evenodd" clip-rule="evenodd" d="M16.5,12.7c0,0.1,0,0.2,0,0.3C16.5,12.9,16.5,12.8,16.5,12.7z"/> <g> <polygon fill-rule="evenodd" clip-rule="evenodd" points="13.2,12.7 13.2,12.7 13.2,12.7 13.2,12.7 "/> <path fill-rule="evenodd" clip-rule="evenodd" d="M13.2,12.9C13.2,12.8,13.2,12.8,13.2,12.9L13.2,12.9L13.2,12.9C13.2,12.8,13.2,12.8,13.2,12.9C13.2,12.9,13.2,12.9,13.2,12.9C13.2,12.9,13.2,12.9,13.2,12.9L13.2,12.9z"/> <polygon fill-rule="evenodd" clip-rule="evenodd" points="6.8,12.8 6.8,12.8 6.8,12.8"/> <polygon fill-rule="evenodd" clip-rule="evenodd" points="6.8,13 6.8,13 6.8,13"/> <path fill-rule="evenodd" clip-rule="evenodd" d="M10.2,17.6c0.5,0.2,1,0.2,1.6,0.2c0,0,0,0,0,0c2.7,0,4.6-1.9,4.8-4.7c0,0,0-0.1,0-0.1c0,0,0,0,0,0c0-0.1,0-0.2,0-0.3v0c0,0,0-0.1,0-0.1l0,0c-0.1-2.8-1.9-4.7-4.6-4.7c0,0,0,0,0,0c-0.5,0-1.1,0.1-1.6,0.2c-1.1,0.4-2,1.1-2.6,2.2c0.6-0.6,1.5-1,2.5-1c0,0,0,0,0,0c1.9,0,3.3,1.4,3.3,3.4l0,0.1c0,0,0,0.1,0,0.1c0,0,0,0.1,0,0.1c-0.1,2-1.5,3.5-3.4,3.5c0,0,0,0,0,0c-1,0-1.9-0.4-2.5-1C8.2,16.5,9.1,17.2,10.2,17.6z"/> </g> <path fill-rule="evenodd" clip-rule="evenodd" d="M15.4,16.7c-0.9,0.9-2.2,1.5-3.6,1.5c0,0,0,0,0,0c-0.6,0-1.2-0.1-1.7-0.3c-2-0.7-3.3-2.5-3.3-4.9l0,0c0,0,0,0,0,0c0,0,0,0,0-0.1v0c0-0.1,0-0.1,0-0.2c0,0,0,0,0,0c0,0,0,0,0,0l0,0c0.1-2.4,1.4-4.3,3.5-5c0.5-0.2,1.1-0.3,1.7-0.3c0,0,0,0,0,0c1.6,0,2.9,0.7,3.8,1.8c-1-2-3-3.3-5.6-3.3c-3.9,0-6.5,2.9-6.6,6.7c0,0,0,0.1,0,0.1v0c0,0.1,0,0.1,0,0.2c0,0,0,0.1,0,0.1c0,3.8,2.6,6.7,6.5,6.6c2.6,0,4.6-1.3,5.7-3.3C15.5,16.5,15.4,16.6,15.4,16.7z"/> </g> </svg>
