<?xml version="1.0" encoding="UTF-8"?>
<svg xmlns="http://www.w3.org/2000/svg" width="20pt" height="20pt" viewBox="0 0 20 20" version="1.1">
<g id="surface1">
<path style="fill:rgb(94,201,222)" d="M 10.152344 8.007812 C 9.054688 8.007812 8.160156 8.902344 8.160156 10 C 8.160156 11.097656 9.054688 11.992188 10.152344 11.992188 C 11.25 11.992188 12.144531 11.097656 12.144531 10 C 12.144531 8.902344 11.25 8.007812 10.152344 8.007812 Z M 10.152344 8.007812 "/>
<path style="fill:rgb(94,201,222)" d="M 3.398438 12.449219 C 3.398438 11.761719 2.835938 11.199219 2.148438 11.199219 C 1.460938 11.199219 0.898438 11.761719 0.898438 12.449219 C 0.898438 13.140625 1.460938 13.699219 2.148438 13.699219 C 2.835938 13.699219 3.398438 13.140625 3.398438 12.449219 Z M 3.398438 12.449219 "/>
<path style="fill:rgb(94,201,222)" d="M 17.148438 10 C 17.347656 9.78125 17.535156 9.558594 17.707031 9.339844 C 19.050781 7.632812 19.441406 6.09375 18.8125 5 C 18.183594 3.90625 16.652344 3.476562 14.5 3.785156 C 13.167969 3.980469 11.675781 4.441406 10.152344 5.121094 C 9.351562 4.761719 8.558594 4.464844 7.789062 4.234375 C 7.867188 4.003906 7.949219 3.777344 8.035156 3.5625 C 8.503906 2.386719 9.09375 1.585938 9.675781 1.292969 C 9.792969 0.792969 10.066406 0.347656 10.441406 0.0195312 C 10.34375 0.0078125 10.25 0 10.152344 0 C 8.890625 0 7.753906 1.109375 6.945312 3.128906 C 6.84375 3.386719 6.746094 3.660156 6.652344 3.941406 C 6.363281 3.878906 6.078125 3.828125 5.804688 3.785156 C 3.652344 3.476562 2.121094 3.90625 1.492188 5 C 0.863281 6.09375 1.253906 7.632812 2.597656 9.339844 C 3.429688 10.398438 4.574219 11.460938 5.925781 12.441406 C 6.015625 13.3125 6.15625 14.148438 6.339844 14.929688 C 6.101562 14.976562 5.867188 15.019531 5.636719 15.054688 C 4.386719 15.234375 3.394531 15.125 2.851562 14.765625 C 2.628906 14.835938 2.394531 14.871094 2.148438 14.871094 C 1.875 14.871094 1.609375 14.824219 1.367188 14.742188 C 1.402344 14.828125 1.445312 14.917969 1.492188 15 C 1.988281 15.859375 3.046875 16.3125 4.523438 16.3125 C 4.921875 16.3125 5.347656 16.277344 5.804688 16.214844 C 6.082031 16.171875 6.363281 16.121094 6.652344 16.058594 C 6.746094 16.339844 6.84375 16.613281 6.945312 16.871094 C 7.753906 18.890625 8.890625 20 10.152344 20 C 11.414062 20 12.550781 18.890625 13.359375 16.871094 C 13.859375 15.621094 14.207031 14.097656 14.378906 12.441406 C 15.089844 11.925781 15.742188 11.386719 16.324219 10.835938 C 16.488281 11.019531 16.644531 11.203125 16.785156 11.382812 C 17.570312 12.378906 17.972656 13.292969 17.929688 13.945312 C 18.292969 14.285156 18.550781 14.734375 18.648438 15.242188 C 18.710938 15.164062 18.765625 15.085938 18.8125 15 C 19.441406 13.90625 19.050781 12.367188 17.707031 10.660156 C 17.535156 10.441406 17.347656 10.21875 17.148438 10 Z M 14.667969 4.945312 C 16.265625 4.71875 17.433594 4.957031 17.796875 5.585938 C 18.160156 6.214844 17.785156 7.347656 16.785156 8.617188 C 16.644531 8.796875 16.488281 8.980469 16.324219 9.164062 C 15.21875 8.117188 13.847656 7.109375 12.328125 6.230469 C 12.070312 6.082031 11.8125 5.941406 11.554688 5.804688 C 12.648438 5.378906 13.707031 5.085938 14.667969 4.945312 Z M 3.519531 8.617188 C 2.519531 7.347656 2.144531 6.214844 2.507812 5.585938 C 2.871094 4.957031 4.039062 4.71875 5.636719 4.945312 C 5.867188 4.980469 6.101562 5.023438 6.339844 5.070312 C 5.988281 6.554688 5.800781 8.242188 5.800781 10 C 5.800781 10.296875 5.804688 10.59375 5.816406 10.882812 C 4.902344 10.148438 4.117188 9.378906 3.519531 8.617188 Z M 6.972656 10 C 6.972656 8.339844 7.148438 6.75 7.476562 5.363281 C 8.839844 5.773438 10.304688 6.414062 11.742188 7.246094 C 13.179688 8.078125 14.46875 9.023438 15.507812 10 C 14.46875 10.976562 13.179688 11.921875 11.742188 12.753906 C 10.304688 13.585938 8.839844 14.226562 7.476562 14.636719 C 7.148438 13.25 6.972656 11.660156 6.972656 10 Z M 12.269531 16.4375 C 11.671875 17.933594 10.878906 18.828125 10.152344 18.828125 C 9.425781 18.828125 8.632812 17.933594 8.035156 16.4375 C 7.949219 16.222656 7.867188 15.996094 7.789062 15.765625 C 9.25 15.328125 10.804688 14.648438 12.328125 13.769531 C 12.585938 13.621094 12.835938 13.46875 13.085938 13.3125 C 12.90625 14.472656 12.632812 15.535156 12.269531 16.4375 Z M 12.269531 16.4375 "/>
<path style="fill:rgb(94,201,222)" d="M 16.273438 14.460938 C 15.585938 14.460938 15.023438 15.019531 15.023438 15.710938 C 15.023438 16.398438 15.585938 16.960938 16.273438 16.960938 C 16.960938 16.960938 17.523438 16.398438 17.523438 15.710938 C 17.523438 15.019531 16.960938 14.460938 16.273438 14.460938 Z M 16.273438 14.460938 "/>
<path style="fill:rgb(94,201,222)" d="M 12.035156 3.089844 C 12.722656 3.089844 13.285156 2.53125 13.285156 1.839844 C 13.285156 1.152344 12.722656 0.589844 12.035156 0.589844 C 11.34375 0.589844 10.785156 1.152344 10.785156 1.839844 C 10.785156 2.53125 11.34375 3.089844 12.035156 3.089844 Z M 12.035156 3.089844 "/>
</g>
</svg>
