<?xml version="1.0" encoding="utf-8"?>
<!-- Generator: Adobe Illustrator 24.0.0, SVG Export Plug-In . SVG Version: 6.00 Build 0)  -->
<svg version="1.1" id="Слой_1" xmlns="http://www.w3.org/2000/svg" xmlns:xlink="http://www.w3.org/1999/xlink" x="0px" y="0px"
	 width="200px" height="55px" viewBox="0 0 200 55" enable-background="new 0 0 200 55" xml:space="preserve">
<g>
	<g>
		<path fill="#00AEEF" d="M121.4,47.3c0.6,0,1.3,0.2,1.6,0.7h0c0,0,0-0.1,0-0.3V46c0-0.4,0.3-0.7,0.7-0.7l0,0c0.4,0,0.7,0.3,0.7,0.7
			v5.5c0,0.7-0.6,1.3-1.3,1.3l0,0v-0.5c0-0.2,0-0.3,0-0.3h0c-0.3,0.5-1,0.9-1.7,0.9c-1.5,0-2.5-1.1-2.5-2.8
			C118.9,48.4,120,47.3,121.4,47.3z M121.7,51.8c0.7,0,1.4-0.5,1.4-1.7c0-0.8-0.4-1.7-1.4-1.7c-0.7,0-1.4,0.6-1.4,1.7
			C120.3,51.1,120.9,51.8,121.7,51.8z"/>
		<path fill="#00AEEF" d="M126.5,45.3h0.2c0.3,0,0.6,0.3,0.6,0.6l0,0c0,0.3-0.3,0.6-0.6,0.6h-0.2c-0.3,0-0.6-0.3-0.6-0.6l0,0
			C125.9,45.6,126.2,45.3,126.5,45.3z M126.6,47.4L126.6,47.4c0.4,0,0.7,0.3,0.7,0.7v4c0,0.4-0.3,0.7-0.7,0.7l0,0
			c-0.4,0-0.7-0.3-0.7-0.7v-4C125.9,47.7,126.2,47.4,126.6,47.4z"/>
		<path fill="#00AEEF" d="M130.9,53.9c0.8,0,1.6-0.3,1.6-1.3v-0.3c0-0.1,0-0.3,0-0.3h0c-0.3,0.5-0.8,0.7-1.6,0.7
			c-1.6,0-2.5-1.2-2.5-2.7c0-1.5,0.8-2.7,2.4-2.7c0.6,0,1.3,0.2,1.7,0.7h0c0,0,0-0.1,0-0.1v-0.4h0.8c0.3,0,0.5,0.2,0.5,0.5v4.5
			c0,1.8-1.5,2.5-2.9,2.5c-0.5,0-1-0.1-1.4-0.2c-0.3-0.1-0.5-0.4-0.3-0.7l0,0c0.1-0.3,0.4-0.4,0.7-0.3
			C130.2,53.8,130.6,53.9,130.9,53.9z M131.2,51.6c0.7,0,1.3-0.4,1.3-1.6c0-1.2-0.6-1.5-1.4-1.5c-0.8,0-1.3,0.6-1.3,1.5
			C129.9,50.9,130.3,51.6,131.2,51.6z"/>
		<path fill="#00AEEF" d="M136,45.3h0.2c0.3,0,0.6,0.3,0.6,0.6l0,0c0,0.3-0.3,0.6-0.6,0.6H136c-0.3,0-0.6-0.3-0.6-0.6l0,0
			C135.4,45.6,135.6,45.3,136,45.3z M136,47.4L136,47.4c0.4,0,0.7,0.3,0.7,0.7v4c0,0.4-0.3,0.7-0.7,0.7l0,0c-0.4,0-0.7-0.3-0.7-0.7
			v-4C135.4,47.7,135.7,47.4,136,47.4z"/>
		<path fill="#00AEEF" d="M138.5,48.6h-0.6c-0.3,0-0.5-0.2-0.5-0.5l0,0c0-0.3,0.2-0.5,0.5-0.5h0.7v-0.9c0-0.4,0.3-0.7,0.7-0.7h0
			c0.4,0,0.7,0.3,0.7,0.7v0.9h0.6c0.3,0,0.5,0.2,0.5,0.5l0,0c0,0.3-0.2,0.5-0.5,0.5h-0.6v2.1c0,0.9,0.7,1,1.1,1c0.1,0,0.1,0,0.3,0
			v1.2c-0.1,0-0.2,0-0.4,0c-0.8,0-2.3-0.2-2.3-2V48.6z"/>
		<path fill="#00AEEF" d="M175.8,48.6h-0.6c-0.3,0-0.5-0.2-0.5-0.5l0,0c0-0.3,0.2-0.5,0.5-0.5h0.7v-0.9c0-0.4,0.3-0.7,0.7-0.7l0,0
			c0.4,0,0.7,0.3,0.7,0.7v0.9h0.6c0.3,0,0.5,0.2,0.5,0.5l0,0c0,0.3-0.2,0.5-0.5,0.5h-0.6v2.1c0,0.9,0.7,1,1.1,1c0.1,0,0.1,0,0.3,0
			v1.2c-0.1,0-0.2,0-0.4,0c-0.8,0-2.3-0.2-2.3-2V48.6z"/>
		<path fill="#00AEEF" d="M145.1,49.4h0.2v-0.1c0-0.7-0.5-0.9-1-0.9c-0.4,0-0.7,0.1-1.1,0.3c-0.3,0.1-0.6,0-0.7-0.2l0,0
			c-0.1-0.3,0-0.6,0.3-0.8c0.5-0.2,1.1-0.4,1.7-0.4c1.4,0,2.3,0.8,2.3,2.1v2.8c0,0.3-0.2,0.6-0.6,0.6h-0.7v-0.5c0-0.2,0-0.4,0-0.4h0
			c-0.3,0.6-1,1-1.7,1c-1,0-1.8-0.6-1.8-1.6C141.8,49.7,143.8,49.4,145.1,49.4z M144.1,51.9c0.8,0,1.3-0.8,1.3-1.4v-0.1h-0.2
			c-0.7,0-1.9,0.1-1.9,0.9C143.2,51.6,143.5,51.9,144.1,51.9z"/>
		<path fill="#00AEEF" d="M148.8,45.3L148.8,45.3c0.4,0,0.7,0.3,0.7,0.7v4.9c0,0.6,0.2,0.7,0.6,0.7c0.1,0,0.1,0,0.2,0v1.2
			c-0.1,0-0.3,0-0.4,0c-0.8,0-1.7-0.2-1.7-1.7V46C148.1,45.6,148.4,45.3,148.8,45.3z"/>
		<path fill="#00AEEF" d="M153.8,51.7c0.2-0.2,0.5-0.3,0.7-0.2c0.4,0.2,0.8,0.3,1.2,0.3c0.5,0,0.8-0.2,0.8-0.5
			c0-0.8-2.7-0.6-2.7-2.4c0-1.1,1-1.6,2.1-1.6c0.5,0,1,0.1,1.4,0.3c0.3,0.1,0.4,0.5,0.2,0.8v0c-0.1,0.2-0.4,0.4-0.7,0.2
			c-0.3-0.1-0.7-0.2-1-0.2c-0.5,0-0.8,0.2-0.8,0.5c0,0.9,2.7,0.6,2.7,2.4c0,0.9-0.8,1.7-2.1,1.7c-0.6,0-1.2-0.1-1.7-0.4
			C153.7,52.3,153.6,52,153.8,51.7L153.8,51.7z"/>
		<path fill="#00AEEF" d="M161.6,47.3c1.7,0,3.1,1.2,3.1,2.8c0,1.7-1.4,2.8-3,2.8c-1.7,0-3-1.2-3-2.8
			C158.6,48.5,160,47.3,161.6,47.3z M161.6,51.8c0.9,0,1.7-0.7,1.7-1.7c0-1-0.7-1.7-1.7-1.7c-0.9,0-1.6,0.7-1.6,1.7
			C160,51.1,160.7,51.8,161.6,51.8z"/>
		<path fill="#00AEEF" d="M166.5,45.3L166.5,45.3c0.4,0,0.7,0.3,0.7,0.7v4.9c0,0.6,0.2,0.7,0.6,0.7c0.1,0,0.1,0,0.2,0v1.2
			c-0.1,0-0.3,0-0.4,0c-0.8,0-1.7-0.2-1.7-1.7V46C165.8,45.6,166.1,45.3,166.5,45.3z"/>
		<path fill="#00AEEF" d="M169.6,47.4L169.6,47.4c0.4,0,0.7,0.3,0.7,0.7v2.5c0,0.7,0.2,1.1,0.9,1.1c1,0,1.6-0.9,1.6-1.8v-1.8
			c0-0.4,0.3-0.7,0.7-0.7l0,0c0.4,0,0.7,0.3,0.7,0.7v4c0,0.3-0.3,0.6-0.6,0.6h-0.1c-0.3,0-0.6-0.3-0.6-0.6l0,0c0-0.2,0-0.4,0-0.4h0
			c-0.3,0.5-1,1.1-1.9,1.1c-1.2,0-1.9-0.6-1.9-2v-2.8C168.9,47.7,169.2,47.4,169.6,47.4z"/>
		<path fill="#00AEEF" d="M180.2,45.3h0.2c0.3,0,0.6,0.3,0.6,0.6l0,0c0,0.3-0.3,0.6-0.6,0.6h-0.2c-0.3,0-0.6-0.3-0.6-0.6l0,0
			C179.6,45.6,179.9,45.3,180.2,45.3z M180.3,47.4L180.3,47.4c0.4,0,0.7,0.3,0.7,0.7v4c0,0.4-0.3,0.7-0.7,0.7l0,0
			c-0.4,0-0.7-0.3-0.7-0.7v-4C179.6,47.7,179.9,47.4,180.3,47.4z"/>
		<path fill="#00AEEF" d="M185.2,47.3c1.7,0,3.1,1.2,3.1,2.8c0,1.7-1.4,2.8-3,2.8c-1.7,0-3-1.2-3-2.8
			C182.1,48.5,183.5,47.3,185.2,47.3z M185.2,51.8c0.9,0,1.7-0.7,1.7-1.7c0-1-0.7-1.7-1.7-1.7c-0.9,0-1.6,0.7-1.6,1.7
			C183.5,51.1,184.3,51.8,185.2,51.8z"/>
		<path fill="#00AEEF" d="M190,47.4L190,47.4c0.4,0,0.7,0.3,0.7,0.6l0,0c0,0.2,0,0.4,0,0.4h0c0.2-0.5,0.8-1.1,2-1.1
			c1.2,0,1.9,0.6,1.9,2v2.8c0,0.4-0.3,0.7-0.7,0.7l0,0c-0.4,0-0.7-0.3-0.7-0.7v-2.5c0-0.7-0.2-1.1-0.9-1.1c-1,0-1.6,0.8-1.6,1.8v1.8
			c0,0.4-0.3,0.7-0.7,0.7l0,0c-0.4,0-0.7-0.3-0.7-0.7v-4C189.4,47.7,189.6,47.4,190,47.4z"/>
		<path fill="#00AEEF" d="M195.9,51.7c0.2-0.2,0.5-0.3,0.7-0.2c0.4,0.2,0.8,0.3,1.2,0.3c0.5,0,0.8-0.2,0.8-0.5
			c0-0.8-2.7-0.6-2.7-2.4c0-1.1,1-1.6,2.1-1.6c0.5,0,1,0.1,1.4,0.3c0.3,0.1,0.4,0.5,0.2,0.8v0c-0.1,0.2-0.4,0.4-0.7,0.2
			c-0.3-0.1-0.7-0.2-1-0.2c-0.5,0-0.8,0.2-0.8,0.5c0,0.9,2.7,0.6,2.7,2.4c0,0.9-0.8,1.7-2.1,1.7c-0.6,0-1.2-0.1-1.7-0.4
			C195.8,52.3,195.7,52,195.9,51.7L195.9,51.7z"/>
	</g>
	<g>
		<path fill="#001923" d="M14.2,42.4C-3.6,42.5-3.7,19.2,9.5,14.9c4.1-1.5,7.8-0.5,11.8-0.1c1.1,0.1,2,1.1,1.9,2.2
			c-0.6,8.4-7.6,0.2-12.8,4.4c-7.7,8.5,0.6,19,9.6,13.7c1.1-0.6,2.4-0.2,2.9,0.9C25.3,41,18.8,42.3,14.2,42.4z"/>
		<path fill="#001923" d="M38.7,42.4c-3.5-0.1-11.4-0.5-11.1-3.3c0.1-6.7,0.8-14.5-0.3-21.5c-0.2-1.1,0.6-2.1,1.6-2.4
			c28.7-5.7,22.4,10.4,19.4,11.6c4.3,1.6,4.9,7.3,2.9,10.7C48.7,41.6,43.4,42.3,38.7,42.4z M34.5,36.2c13.1,3.2,15.2-7.8,0.2-5.6
			C34.8,32.2,34.7,34.3,34.5,36.2z M34.8,25.3c13,1.3,11.5-8.1-0.2-5.3L34.8,25.3z"/>
		<path fill="#001923" d="M70.5,42.4c-17.8-0.1-17.2-18.6-10.3-24.9c10.5-8.4,24.3-1.8,21.7,10.9c-0.2,0.9-1,1.6-1.9,1.7
			c-5.6,0.3-11.2,0.3-16.8,0.2c0.7,6.7,9.2,7.5,14.2,4.6c1.1-0.6,2.5-0.2,3,1C82.6,41.3,75.3,42.3,70.5,42.4z M63.4,25.2
			c3.6,0,8.1,0.1,11.9,0C75.5,17.4,64.5,18.7,63.4,25.2z"/>
		<path fill="#001923" d="M139.2,42.1c-5.5,1.2-1.4-14.7-2.3-18c-3.7,5.5-7.3,10.6-10.5,16.5c-0.3,0.5-0.8,0.9-1.4,1
			c-2.4,0.5-5.9,1.1-6.1-1.3c-0.4-9.9,1-17.5-0.3-23.4c-0.3-1.2,0.5-2.3,1.7-2.5c10.3-1.8,4.7,9,5.5,16.3
			c3.3-5.2,6.6-10.1,10.2-15.1c0.3-0.4,0.8-0.7,1.3-0.8c7.2-1.4,6.7,0.8,6.5,6.6c-0.2,6.3-0.6,12.2-0.3,18.3c0,1-0.7,1.9-1.7,2.1
			C141.1,42,140.2,42.1,139.2,42.1z"/>
		<path fill="#001923" d="M171,42.2c-8.1,0.2-6-13-14.2-11.8c0.1,2.8-0.1,6.1,0.3,9.1c0.2,1.1-0.6,2.1-1.6,2.3c-5.7,1.2-6-1-5.7-6.4
			c0-6.3,0.7-12.5-0.2-18.6c-0.2-1.2,0.7-2.2,1.8-2.4c8.4-1,4.9,3.6,5.4,10.7c0.8,0,1.7,0,2.5,0.1c0.6,0,1.2-0.3,1.5-0.8
			c6.6-10.7,8.1-12.3,12.3-8.5c0.9,0.8,0.9,2.2,0,3.1c-2.6,2.4-4.9,5-7.2,8.1c3.3,2.3,3.9,7.8,6.9,8.5c0.9,0.2,1.5,1,1.6,1.9
			C174.5,39.9,174.1,42.3,171,42.2z"/>
		<path fill="#001923" d="M190.6,42.4c-17.8,0.1-17.8-23.3-4.7-27.6c4.1-1.5,7.8-0.5,11.8-0.1c1.1,0.1,2,1.1,1.9,2.2
			c-0.6,8.4-7.6,0.2-12.8,4.4c-7.7,8.5,0.6,19,9.6,13.7c1.1-0.6,2.4-0.2,2.9,0.9C201.7,41,195.2,42.3,190.6,42.4z"/>
	</g>
	<g>
		<g>
			<linearGradient id="SVGID_1_" gradientUnits="userSpaceOnUse" x1="85.0489" y1="28.3339" x2="85.0521" y2="28.3339">
				<stop  offset="0" style="stop-color:#00AEEF"/>
				<stop  offset="1" style="stop-color:#43CCFF"/>
			</linearGradient>
			<path fill-rule="evenodd" clip-rule="evenodd" fill="url(#SVGID_1_)" d="M85,28.2c0,0.1,0,0.2,0,0.3C85,28.4,85,28.3,85,28.2
				L85,28.2z"/>
			<linearGradient id="SVGID_2_" gradientUnits="userSpaceOnUse" x1="115.4151" y1="27.9304" x2="115.4312" y2="27.9304">
				<stop  offset="0" style="stop-color:#00AEEF"/>
				<stop  offset="1" style="stop-color:#43CCFF"/>
			</linearGradient>
			<path fill-rule="evenodd" clip-rule="evenodd" fill="url(#SVGID_2_)" d="M115.4,27.6c0,0.2,0,0.5,0,0.7
				C115.4,28.1,115.4,27.8,115.4,27.6z"/>
			<linearGradient id="SVGID_3_" gradientUnits="userSpaceOnUse" x1="85.0489" y1="27.8355" x2="85.0633" y2="27.8355">
				<stop  offset="0" style="stop-color:#00AEEF"/>
				<stop  offset="1" style="stop-color:#43CCFF"/>
			</linearGradient>
			<path fill-rule="evenodd" clip-rule="evenodd" fill="url(#SVGID_3_)" d="M85,28.2c0-0.2,0-0.5,0-0.7C85.1,27.7,85,28,85,28.2
				L85,28.2z"/>
			<g>
				<linearGradient id="SVGID_4_" gradientUnits="userSpaceOnUse" x1="108.9576" y1="16.6748" x2="104.2101" y2="29.4067">
					<stop  offset="0" style="stop-color:#00AEEF"/>
					<stop  offset="1" style="stop-color:#43CCFF"/>
				</linearGradient>
				<path fill-rule="evenodd" clip-rule="evenodd" fill="url(#SVGID_4_)" d="M100.6,38.9c1.1,0.4,2.4,0.6,3.7,0.6c0,0,0,0,0,0
					c6.2,0,10.7-4.4,11.1-11c0-0.1,0-0.2,0-0.2c0,0,0,0,0,0c0-0.2,0-0.5,0-0.7v-0.1c0-0.1,0-0.2,0-0.2l0,0c-0.1-6.5-4.5-11-10.6-11
					c0,0-0.1,0-0.1,0c-1.3,0-2.5,0.2-3.6,0.6c-2,0.7-3.7,1.8-4.9,3.4c-0.2,0.3,0.1,0.6,0.4,0.4c1.2-0.7,2.7-1.2,4.3-1.2
					c0,0,0,0,0.1,0c4.5,0,7.6,3.3,7.7,8l0,0.2c0,0.1,0,0.2,0,0.2c0,0.1,0,0.2,0,0.3c-0.2,4.7-3.5,8.1-8,8.1c0,0,0,0,0,0
					c-1.6,0-3.1-0.4-4.3-1.2c-0.3-0.2-0.6,0.2-0.4,0.4C97,37.1,98.7,38.3,100.6,38.9z"/>
				<linearGradient id="SVGID_5_" gradientUnits="userSpaceOnUse" x1="92.6884" y1="28.2712" x2="92.6882" y2="28.2716">
					<stop  offset="0" style="stop-color:#00AEEF"/>
					<stop  offset="1" style="stop-color:#43CCFF"/>
				</linearGradient>
				<polygon fill-rule="evenodd" clip-rule="evenodd" fill="url(#SVGID_5_)" points="92.7,28.3 92.7,28.3 92.7,28.3 				"/>
				<linearGradient id="SVGID_6_" gradientUnits="userSpaceOnUse" x1="92.6966" y1="27.6348" x2="92.6963" y2="27.6355">
					<stop  offset="0" style="stop-color:#00AEEF"/>
					<stop  offset="1" style="stop-color:#43CCFF"/>
				</linearGradient>
				<polygon fill-rule="evenodd" clip-rule="evenodd" fill="url(#SVGID_6_)" points="92.7,27.6 92.7,27.6 92.7,27.6 				"/>
			</g>
			<linearGradient id="SVGID_7_" gradientUnits="userSpaceOnUse" x1="96.9063" y1="44.3481" x2="101.2612" y2="11.8536">
				<stop  offset="0" style="stop-color:#00AEEF"/>
				<stop  offset="1" style="stop-color:#43CCFF"/>
			</linearGradient>
			<path fill-rule="evenodd" clip-rule="evenodd" fill="url(#SVGID_7_)" d="M104.3,40.3C104.3,40.3,104.3,40.3,104.3,40.3
				c-1.4,0-2.8-0.2-4-0.6c-4.7-1.6-7.6-5.9-7.7-11.4l0,0c0,0,0,0,0,0c0-0.1,0-0.1,0-0.2v-0.1c0-0.1,0-0.2,0-0.4c0,0,0,0,0-0.1
				c0,0,0,0,0,0l0,0c0.2-5.5,3.3-10,8.1-11.5c1.2-0.4,2.5-0.6,3.9-0.6c0,0,0.1,0,0.1,0c2.8,0,5.2,0.8,7.1,2.3
				c0.3,0.2,0.6-0.1,0.4-0.4c-2.6-3.5-6.7-5.6-11.8-5.5c-9,0.1-15.1,6.8-15.5,15.6c0,0.1,0,0.2,0,0.3v0c0,0.1,0,0.2,0,0.4
				c0,0.1,0,0.2,0,0.3c0.1,8.9,6.1,15.5,15,15.5c5,0,9.1-2.1,11.8-5.5c0.2-0.3-0.1-0.6-0.4-0.4C109.9,39.2,107.5,40.4,104.3,40.3z"
				/>
		</g>
		<linearGradient id="SVGID_8_" gradientUnits="userSpaceOnUse" x1="89.7444" y1="13.4646" x2="110.3508" y2="-0.9845">
			<stop  offset="0" style="stop-color:#00AEEF"/>
			<stop  offset="1" style="stop-color:#43CCFF"/>
		</linearGradient>
		<path fill="url(#SVGID_8_)" d="M106.3,0.1c-0.2,0-0.3,0.2-0.2,0.4c0,0.1,0.1,0.2,0.1,0.5c0,0.8-1,1.8-6.1,0.2
			C89.4-2,83.9,7.6,89.9,13.4c0.2,0.2,0.5,0.2,0.7,0c1.2-1.3,2.8-2.2,4.6-2.4c0.2,0,0.4-0.2,0.4-0.4c0.4-2.9,4.5-1.5,6-1
			C116,14.2,116.8-1.5,106.3,0.1z M110.5,8.1c-1.8,1.3-4.7,1.7-8.9,0.3c-1.1-0.4-4.1-1.4-5.2,0c0.6-2,4-1,5.2-0.6
			c4.5,1.5,6.6,0.8,8.7,0C110.7,7.7,110.8,7.9,110.5,8.1z"/>
	</g>
</g>
</svg>
