<?xml version="1.0" encoding="UTF-8"?>
<svg xmlns="http://www.w3.org/2000/svg" xmlns:xlink="http://www.w3.org/1999/xlink" width="100px" height="100px" viewBox="0 0 100 100" version="1.1" style="enable-background:new 0 0 100 100;">
<path d="M 50.761719 40.039062 C 45.273438 40.039062 40.800781 44.511719 40.800781 50 C 40.800781 55.488281 45.273438 59.960938 50.761719 59.960938 C 56.25 59.960938 60.722656 55.488281 60.722656 50 C 60.722656 44.511719 56.25 40.039062 50.761719 40.039062 Z M 50.761719 40.039062 "/>
<path d="M 16.992188 62.246094 C 16.992188 58.808594 14.179688 55.996094 10.742188 55.996094 C 7.304688 55.996094 4.492188 58.808594 4.492188 62.246094 C 4.492188 65.703125 7.304688 68.496094 10.742188 68.496094 C 14.179688 68.496094 16.992188 65.703125 16.992188 62.246094 Z M 16.992188 62.246094 "/>
<path d="M 85.742188 50 C 86.738281 48.90625 87.675781 47.792969 88.535156 46.699219 C 95.253906 38.164062 97.207031 30.46875 94.0625 25 C 90.917969 19.53125 83.261719 17.382812 72.5 18.925781 C 65.839844 19.902344 58.378906 22.207031 50.761719 25.605469 C 46.757812 23.808594 42.792969 22.324219 38.945312 21.171875 C 39.335938 20.019531 39.746094 18.886719 40.175781 17.8125 C 42.519531 11.933594 45.46875 7.929688 48.378906 6.464844 C 48.964844 3.964844 50.332031 1.738281 52.207031 0.0976562 C 51.71875 0.0390625 51.25 0 50.761719 0 C 44.453125 0 38.769531 5.546875 34.726562 15.644531 C 34.21875 16.933594 33.730469 18.300781 33.261719 19.707031 C 31.816406 19.394531 30.390625 19.140625 29.023438 18.925781 C 18.261719 17.382812 10.605469 19.53125 7.460938 25 C 4.316406 30.46875 6.269531 38.164062 12.988281 46.699219 C 17.148438 51.992188 22.871094 57.304688 29.628906 62.207031 C 30.078125 66.5625 30.78125 70.742188 31.699219 74.648438 C 30.507812 74.882812 29.335938 75.097656 28.183594 75.273438 C 21.933594 76.171875 16.972656 75.625 14.257812 73.828125 C 13.144531 74.179688 11.972656 74.355469 10.742188 74.355469 C 9.375 74.355469 8.046875 74.121094 6.835938 73.710938 C 7.011719 74.140625 7.226562 74.589844 7.460938 75 C 9.941406 79.296875 15.234375 81.5625 22.617188 81.5625 C 24.609375 81.5625 26.738281 81.386719 29.023438 81.074219 C 30.410156 80.859375 31.816406 80.605469 33.261719 80.292969 C 33.730469 81.699219 34.21875 83.066406 34.726562 84.355469 C 38.769531 94.453125 44.453125 100 50.761719 100 C 57.070312 100 62.753906 94.453125 66.796875 84.355469 C 69.296875 78.105469 71.035156 70.488281 71.894531 62.207031 C 75.449219 59.628906 78.710938 56.933594 81.621094 54.179688 C 82.441406 55.097656 83.222656 56.015625 83.925781 56.914062 C 87.851562 61.894531 89.863281 66.464844 89.648438 69.726562 C 91.464844 71.425781 92.753906 73.671875 93.242188 76.210938 C 93.554688 75.820312 93.828125 75.429688 94.0625 75 C 97.207031 69.53125 95.253906 61.835938 88.535156 53.300781 C 87.675781 52.207031 86.738281 51.09375 85.742188 50 Z M 73.339844 24.726562 C 81.328125 23.59375 87.167969 24.785156 88.984375 27.929688 C 90.800781 31.074219 88.925781 36.738281 83.925781 43.085938 C 83.222656 43.984375 82.441406 44.902344 81.621094 45.820312 C 76.09375 40.585938 69.238281 35.546875 61.640625 31.152344 C 60.351562 30.410156 59.0625 29.707031 57.773438 29.023438 C 63.242188 26.894531 68.535156 25.429688 73.339844 24.726562 Z M 17.597656 43.085938 C 12.597656 36.738281 10.722656 31.074219 12.539062 27.929688 C 14.355469 24.785156 20.195312 23.59375 28.183594 24.726562 C 29.335938 24.902344 30.507812 25.117188 31.699219 25.351562 C 29.941406 32.773438 29.003906 41.210938 29.003906 50 C 29.003906 51.484375 29.023438 52.96875 29.082031 54.414062 C 24.511719 50.742188 20.585938 46.894531 17.597656 43.085938 Z M 34.863281 50 C 34.863281 41.699219 35.742188 33.75 37.382812 26.816406 C 44.199219 28.867188 51.523438 32.070312 58.710938 36.230469 C 65.898438 40.390625 72.34375 45.117188 77.539062 50 C 72.34375 54.882812 65.898438 59.609375 58.710938 63.769531 C 51.523438 67.929688 44.199219 71.132812 37.382812 73.183594 C 35.742188 66.25 34.863281 58.300781 34.863281 50 Z M 61.347656 82.1875 C 58.359375 89.667969 54.394531 94.140625 50.761719 94.140625 C 47.128906 94.140625 43.164062 89.667969 40.175781 82.1875 C 39.746094 81.113281 39.335938 79.980469 38.945312 78.828125 C 46.25 76.640625 54.023438 73.242188 61.640625 68.847656 C 62.929688 68.105469 64.179688 67.34375 65.429688 66.5625 C 64.53125 72.363281 63.164062 77.675781 61.347656 82.1875 Z M 61.347656 82.1875 "/>
<path d="M 81.367188 72.304688 C 77.929688 72.304688 75.117188 75.097656 75.117188 78.554688 C 75.117188 81.992188 77.929688 84.804688 81.367188 84.804688 C 84.804688 84.804688 87.617188 81.992188 87.617188 78.554688 C 87.617188 75.097656 84.804688 72.304688 81.367188 72.304688 Z M 81.367188 72.304688 "/>
<path d="M 60.175781 15.449219 C 63.613281 15.449219 66.425781 12.65625 66.425781 9.199219 C 66.425781 5.761719 63.613281 2.949219 60.175781 2.949219 C 56.71875 2.949219 53.925781 5.761719 53.925781 9.199219 C 53.925781 12.65625 56.71875 15.449219 60.175781 15.449219 Z M 60.175781 15.449219 "/>
</svg>
